<?xml version="1.0" encoding="UTF-8"?>
<svg width="17px" height="20px" viewBox="0 0 17 20" version="1.1" xmlns="http://www.w3.org/2000/svg" xmlns:xlink="http://www.w3.org/1999/xlink">
    <!-- Generator: Sketch 41.1 (35376) - http://www.bohemiancoding.com/sketch -->
    <title>Combined Shape</title>
    <desc>Created with Sketch.</desc>
    <defs></defs>
    <g id="Page-1" stroke="none" stroke-width="1" fill="none" fill-rule="evenodd">
        <g id="Artboard-Copy-15" transform="translate(-494.000000, -41.000000)" fill="#333333">
            <path d="M509.706707,52.2243232 L508.647894,49.0306534 L504.598558,53.2527547 L501.832494,50.3316102 L502.530359,49.8146737 C503.849454,48.8324944 505.115948,47.4880062 505.115948,45.6270349 C505.115948,42.8868181 502.943908,41 500.023217,41 C497.541468,41 494.956332,42.7058904 494.956332,45.7821158 C494.956332,47.4363125 496.094046,48.8324944 496.972838,49.7629801 L497.257153,50.0735954 L497.127919,50.1506824 C495.215254,51.5722577 494,52.8904457 494,55.1654197 C494,57.6213214 495.964812,60.0772231 499.557974,60.0772231 C501.522786,60.0772231 503.098989,59.146284 504.469324,57.7505555 L506.356595,59.7412143 L510.802703,59.7412143 L506.666304,55.3984945 L509.706707,52.2243232 Z M499.609668,57.0785381 C498.265179,57.0785381 497.412234,56.0188183 497.412234,54.9586451 C497.412234,53.8730785 498.007165,53.1752143 498.885957,52.5290437 L499.273659,52.2447286 L502.401125,55.5535755 C501.522786,56.4840611 500.721081,57.0785381 499.609668,57.0785381 Z M499.99737,43.8431506 C501.08339,43.8431506 501.858341,44.6185553 501.858341,45.601188 C501.858341,46.2732055 501.548179,46.919376 500.695234,47.5401533 L499.790142,48.2121707 L499.299506,47.6693874 C498.834263,47.2036911 498.213939,46.4541332 498.213939,45.6787285 C498.213939,44.438081 499.144425,43.8431506 499.99737,43.8431506 Z" id="Combined-Shape"></path>
        </g>
    </g>
</svg>